<?xml version="1.0" standalone="no"?><!DOCTYPE svg PUBLIC "-//W3C//DTD SVG 1.1//EN" "http://www.w3.org/Graphics/SVG/1.1/DTD/svg11.dtd"><svg t="1599295671925" class="icon" viewBox="0 0 1024 1024" version="1.1" xmlns="http://www.w3.org/2000/svg" p-id="3605" xmlns:xlink="http://www.w3.org/1999/xlink" width="200" height="200"><defs><style type="text/css"></style></defs><path d="M512.285714 292.571429c38.262857 0 72.914286 4.514286 105.908572 13.782857 28.742857 8.08 55.702857 19.657143 82.411428 35.405714 51.885714 30.594286 95.165714 72.777143 137.005715 113.577143 19.565714 19.085714 39.417143 38.434286 60.262857 56.662857-20.845714 18.228571-40.697143 37.577143-60.262857 56.662857-41.851429 40.8-85.12 82.982857-137.005715 113.577143-26.708571 15.748571-53.668571 27.325714-82.411428 35.405714-32.994286 9.268571-67.645714 13.782857-105.908572 13.782857-38.32 0-73.017143-4.525714-106.08-13.817142-28.8-8.102857-55.817143-19.714286-82.594285-35.508572-52-30.662857-95.348571-72.925714-137.257143-113.794286-19.451429-18.96-39.177143-38.194286-59.862857-56.308571 20.697143-18.114286 40.422857-37.348571 59.862857-56.308571 41.92-40.868571 85.257143-83.12 137.257143-113.794286 26.777143-15.794286 53.794286-27.405714 82.594285-35.508572 33.062857-9.291429 67.76-13.817143 106.08-13.817142m0-73.142858C229.36 219.428571 146.285714 438.857143 0 512c146.285714 73.142857 229.36 292.571429 512.285714 292.571429S877.714286 585.142857 1024.571429 512C877.714286 438.857143 795.211429 219.428571 512.285714 219.428571zM512 658.285714c-100.822857 0-182.857143-82.034286-182.857143-182.857143s82.034286-182.857143 182.857143-182.857142 182.857143 82.034286 182.857143 182.857142-82.034286 182.857143-182.857143 182.857143z m0-292.571428c-60.491429 0-109.714286 49.222857-109.714286 109.714285s49.222857 109.714286 109.714286 109.714286 109.714286-49.222857 109.714286-109.714286-49.222857-109.714286-109.714286-109.714285z m146.285714 146.285714c0 60.594286-49.12 109.714286-109.714285 109.714286s-109.714286-49.12-109.714286-109.714286 49.12-109.714286 109.714286-109.714286 109.714286 49.12 109.714285 109.714286z" p-id="3606" fill="#707070"></path></svg>