<?xml version="1.0" standalone="no"?><!DOCTYPE svg PUBLIC "-//W3C//DTD SVG 1.1//EN" "http://www.w3.org/Graphics/SVG/1.1/DTD/svg11.dtd"><svg t="1600050257928" class="icon" viewBox="0 0 1024 1024" version="1.1" xmlns="http://www.w3.org/2000/svg" p-id="5449" xmlns:xlink="http://www.w3.org/1999/xlink" width="200" height="200"><defs><style type="text/css"></style></defs><path d="M458.448 840.48l-0.08-0.08L816.64 512 458.368 183.584l0.064-0.08A31.808 31.808 0 0 1 448 160a32 32 0 0 1 32-32c8.336 0 15.856 3.264 21.552 8.496l0.064-0.08 384 352-0.064 0.08c6.384 5.84 10.448 14.176 10.448 23.504 0 9.344-4.064 17.664-10.448 23.52l0.08 0.08-384 352-0.08-0.08c-5.696 5.216-13.216 8.48-21.552 8.48a32 32 0 0 1-32-32c0-9.344 4.064-17.664 10.448-23.52z" p-id="5450" fill="#e6e6e6"></path><path d="M352 480h256a32 32 0 1 1 0 64H352a32 32 0 1 1 0-64zM160 480h64a32 32 0 1 1 0 64h-64a32 32 0 1 1 0-64z" p-id="5451" fill="#e6e6e6"></path></svg>