<?xml version="1.0" standalone="no"?><!DOCTYPE svg PUBLIC "-//W3C//DTD SVG 1.1//EN" "http://www.w3.org/Graphics/SVG/1.1/DTD/svg11.dtd"><svg t="1600825203977" class="icon" viewBox="0 0 1024 1024" version="1.1" xmlns="http://www.w3.org/2000/svg" p-id="4573" xmlns:xlink="http://www.w3.org/1999/xlink" width="200" height="200"><defs><style type="text/css"></style></defs><path d="M832 128a192 192 0 0 1 192 192v256a192 192 0 0 1-192 192H256v64c0 25.856-15.616 49.28-39.488 59.136a64.213333 64.213333 0 0 1-69.76-13.888l-128-128A63.829333 63.829333 0 0 1 0 704c0-16.384 6.272-32.768 18.752-45.248l128-128a64.106667 64.106667 0 0 1 69.76-13.888A64.042667 64.042667 0 0 1 256 576v64h576c35.392 0 64-28.608 64-64V320a64 64 0 0 0-64-64H320a64.021333 64.021333 0 0 1 0-128h512z" fill="#707070" p-id="4574"></path></svg>